<mxfile host="app.diagrams.net" modified="2023-09-05T13:39:07.312Z" agent="Mozilla/5.0 (Macintosh; Intel Mac OS X 10_15_7) AppleWebKit/537.36 (KHTML, like Gecko) Chrome/116.0.0.0 Safari/537.36" etag="jMOdtEZAgPHQk2PR7cyj" version="21.7.1" type="device">
  <diagram name="Page-1" id="qUw_CK1pjzlE3Cx89_ZL">
    <mxGraphModel dx="1451" dy="2022" grid="1" gridSize="10" guides="1" tooltips="1" connect="1" arrows="1" fold="1" page="1" pageScale="1" pageWidth="850" pageHeight="1100" math="0" shadow="0">
      <root>
        <mxCell id="0" />
        <mxCell id="1" parent="0" />
        <mxCell id="iVyjQRI55B28_YTLfMTB-6" style="rounded=0;orthogonalLoop=1;jettySize=auto;html=1;exitX=0.69;exitY=0.052;exitDx=0;exitDy=0;entryX=0.092;entryY=0.748;entryDx=0;entryDy=0;strokeWidth=3;startArrow=none;startFill=0;strokeColor=#00aa00;exitPerimeter=0;entryPerimeter=0;fontStyle=1" edge="1" parent="1" source="iVyjQRI55B28_YTLfMTB-1" target="iVyjQRI55B28_YTLfMTB-5">
          <mxGeometry relative="1" as="geometry" />
        </mxCell>
        <mxCell id="iVyjQRI55B28_YTLfMTB-16" style="edgeStyle=orthogonalEdgeStyle;rounded=0;orthogonalLoop=1;jettySize=auto;html=1;exitX=1;exitY=0.5;exitDx=0;exitDy=0;entryX=0;entryY=0.5;entryDx=0;entryDy=0;strokeWidth=3;strokeColor=#00AA00;fontStyle=1" edge="1" parent="1" source="iVyjQRI55B28_YTLfMTB-1" target="iVyjQRI55B28_YTLfMTB-14">
          <mxGeometry relative="1" as="geometry" />
        </mxCell>
        <mxCell id="iVyjQRI55B28_YTLfMTB-1" value="&lt;font face=&quot;Ubuntu&quot; color=&quot;#ffffff&quot;&gt;&lt;span style=&quot;font-size: 20px;&quot;&gt;&lt;span&gt;OAuth&lt;br&gt;Client&lt;br&gt;&lt;/span&gt;&lt;/span&gt;&lt;/font&gt;" style="ellipse;whiteSpace=wrap;html=1;aspect=fixed;strokeColor=none;fillColor=#F26C9D;fontStyle=1" vertex="1" parent="1">
          <mxGeometry x="320" y="360" width="80" height="80" as="geometry" />
        </mxCell>
        <mxCell id="iVyjQRI55B28_YTLfMTB-4" value="" style="rounded=1;whiteSpace=wrap;html=1;fillColor=none;strokeWidth=3;strokeColor=#F8C300;fontStyle=1" vertex="1" parent="1">
          <mxGeometry x="620" y="350" width="320" height="190" as="geometry" />
        </mxCell>
        <mxCell id="iVyjQRI55B28_YTLfMTB-5" value="&lt;font face=&quot;Ubuntu&quot; color=&quot;#ffffff&quot;&gt;&lt;span style=&quot;font-size: 20px;&quot;&gt;&lt;span&gt;Auth&lt;br&gt;Server&lt;br&gt;&lt;/span&gt;&lt;/span&gt;&lt;/font&gt;" style="ellipse;whiteSpace=wrap;html=1;aspect=fixed;strokeColor=none;fillColor=#E55FFB;fontStyle=1" vertex="1" parent="1">
          <mxGeometry x="740" y="-100" width="80" height="80" as="geometry" />
        </mxCell>
        <mxCell id="iVyjQRI55B28_YTLfMTB-7" value="getAccessToken(&quot;https://astraios-api.com/v1/data&quot;)" style="text;html=1;strokeColor=none;fillColor=none;align=center;verticalAlign=middle;whiteSpace=wrap;rounded=0;rotation=313;fontFamily=Ubuntu;fontStyle=1;fontSize=20;" vertex="1" parent="1">
          <mxGeometry x="270" y="120" width="540" height="30" as="geometry" />
        </mxCell>
        <mxCell id="iVyjQRI55B28_YTLfMTB-8" style="rounded=0;orthogonalLoop=1;jettySize=auto;html=1;exitX=0.922;exitY=0.195;exitDx=0;exitDy=0;entryX=0.297;entryY=0.927;entryDx=0;entryDy=0;strokeWidth=3;startArrow=classic;startFill=1;strokeColor=#00aa00;exitPerimeter=0;entryPerimeter=0;endArrow=none;endFill=0;fontStyle=1" edge="1" parent="1">
          <mxGeometry relative="1" as="geometry">
            <mxPoint x="391.76" y="377.5999999999999" as="sourcePoint" />
            <mxPoint x="761.76" y="-23.839999999999918" as="targetPoint" />
          </mxGeometry>
        </mxCell>
        <mxCell id="iVyjQRI55B28_YTLfMTB-9" value="access_token (JWT)" style="text;html=1;strokeColor=none;fillColor=none;align=center;verticalAlign=middle;whiteSpace=wrap;rounded=0;rotation=313;fontFamily=Ubuntu;fontStyle=1;fontSize=20;" vertex="1" parent="1">
          <mxGeometry x="330" y="170" width="540" height="30" as="geometry" />
        </mxCell>
        <mxCell id="iVyjQRI55B28_YTLfMTB-11" style="edgeStyle=orthogonalEdgeStyle;rounded=0;orthogonalLoop=1;jettySize=auto;html=1;exitX=1;exitY=0;exitDx=0;exitDy=0;entryX=0;entryY=0;entryDx=0;entryDy=0;curved=1;strokeWidth=3;strokeColor=#00AA00;fontStyle=1" edge="1" parent="1" source="iVyjQRI55B28_YTLfMTB-5" target="iVyjQRI55B28_YTLfMTB-5">
          <mxGeometry relative="1" as="geometry">
            <Array as="points">
              <mxPoint x="808" y="-140" />
              <mxPoint x="752" y="-140" />
            </Array>
          </mxGeometry>
        </mxCell>
        <mxCell id="iVyjQRI55B28_YTLfMTB-12" value="&lt;p style=&quot;line-height: 0%;&quot;&gt;Register Resource&lt;/p&gt;&lt;p style=&quot;line-height: 0%;&quot;&gt;&lt;br&gt;&lt;/p&gt;&lt;p style=&quot;line-height: 0%;&quot;&gt;https://astraios-api.com/v1/data&lt;br&gt;&lt;/p&gt;&lt;div&gt;&lt;br&gt;&lt;/div&gt;" style="text;html=1;strokeColor=none;fillColor=none;align=center;verticalAlign=middle;whiteSpace=wrap;rounded=0;rotation=0;fontFamily=Ubuntu;fontStyle=1;fontSize=20;" vertex="1" parent="1">
          <mxGeometry x="510" y="-220" width="540" height="100" as="geometry" />
        </mxCell>
        <mxCell id="iVyjQRI55B28_YTLfMTB-17" style="edgeStyle=orthogonalEdgeStyle;rounded=0;orthogonalLoop=1;jettySize=auto;html=1;exitX=0.5;exitY=1;exitDx=0;exitDy=0;entryX=0.5;entryY=0;entryDx=0;entryDy=0;strokeColor=#00AA00;strokeWidth=3;fontStyle=1" edge="1" parent="1" source="iVyjQRI55B28_YTLfMTB-14" target="iVyjQRI55B28_YTLfMTB-15">
          <mxGeometry relative="1" as="geometry" />
        </mxCell>
        <mxCell id="iVyjQRI55B28_YTLfMTB-14" value="&lt;font style=&quot;font-size: 20px;&quot; face=&quot;Ubuntu&quot;&gt;&lt;span&gt;ContainerRequestFilter&lt;/span&gt;&lt;/font&gt;" style="rounded=1;whiteSpace=wrap;html=1;fillColor=#F8C300;strokeColor=#F8C300;fontStyle=1" vertex="1" parent="1">
          <mxGeometry x="660" y="370" width="240" height="60" as="geometry" />
        </mxCell>
        <mxCell id="iVyjQRI55B28_YTLfMTB-15" value="&lt;font style=&quot;font-size: 20px;&quot; face=&quot;Ubuntu&quot;&gt;&lt;span&gt;Astraios API Resources&lt;/span&gt;&lt;/font&gt;" style="rounded=1;whiteSpace=wrap;html=1;fillColor=#F8C300;strokeColor=#F8C300;fontStyle=1" vertex="1" parent="1">
          <mxGeometry x="660" y="470" width="240" height="60" as="geometry" />
        </mxCell>
        <mxCell id="iVyjQRI55B28_YTLfMTB-18" value="access_token" style="text;html=1;strokeColor=none;fillColor=none;align=center;verticalAlign=middle;whiteSpace=wrap;rounded=0;rotation=0;fontFamily=Ubuntu;fontStyle=1;fontSize=20;" vertex="1" parent="1">
          <mxGeometry x="250" y="410" width="540" height="30" as="geometry" />
        </mxCell>
        <mxCell id="iVyjQRI55B28_YTLfMTB-19" style="edgeStyle=orthogonalEdgeStyle;rounded=0;orthogonalLoop=1;jettySize=auto;html=1;exitX=0.25;exitY=0;exitDx=0;exitDy=0;entryX=0.75;entryY=0;entryDx=0;entryDy=0;curved=1;strokeWidth=3;strokeColor=#00aa00;fontStyle=1" edge="1" parent="1" source="iVyjQRI55B28_YTLfMTB-14" target="iVyjQRI55B28_YTLfMTB-14">
          <mxGeometry relative="1" as="geometry">
            <Array as="points">
              <mxPoint x="720" y="300" />
              <mxPoint x="840" y="300" />
            </Array>
          </mxGeometry>
        </mxCell>
        <mxCell id="iVyjQRI55B28_YTLfMTB-20" value="Validate access_token" style="text;html=1;strokeColor=none;fillColor=none;align=center;verticalAlign=middle;whiteSpace=wrap;rounded=0;rotation=0;fontFamily=Ubuntu;fontStyle=1;fontSize=20;" vertex="1" parent="1">
          <mxGeometry x="510" y="260" width="540" height="30" as="geometry" />
        </mxCell>
      </root>
    </mxGraphModel>
  </diagram>
</mxfile>
